REM DIRINDEX 1\2,1\3,1\4,1\5
REM DIRNAME folder01,folder02,folder03,folder04,folder05
TITLE ""
FILE "1Q_t_0502-0511.mp3" MP3
  TRACK 01 AUDIO
    TITLE "3:cjc004_2408"
    INDEX 01 00:00:00
  TRACK 02 AUDIO
    TITLE "0:"
    INDEX 01 00:01:13
  TRACK 03 AUDIO
    TITLE "4:cjc004_2409"
    INDEX 01 00:01:36
  TRACK 04 AUDIO
    TITLE "0:"
    INDEX 01 00:02:55
  TRACK 05 AUDIO
    TITLE "5:cjc004_2410"
    INDEX 01 00:03:08
  TRACK 06 AUDIO
    TITLE "0:"
    INDEX 01 00:10:00
  TRACK 07 AUDIO
    TITLE "3:cjc004_2411"
    INDEX 01 00:10:51
  TRACK 08 AUDIO
    TITLE "0:"
    INDEX 01 00:11:54
  TRACK 09 AUDIO
    TITLE "4:cjc004_2412"
    INDEX 01 00:12:05
  TRACK 10 AUDIO
    TITLE "0:"
    INDEX 01 00:13:18
  TRACK 11 AUDIO
    TITLE "5:cjc004_2413"
    INDEX 01 00:13:45
  TRACK 12 AUDIO
    TITLE "0:"
    INDEX 01 00:18:27
  TRACK 13 AUDIO
    TITLE "3:cjc004_2414"
    INDEX 01 00:19:05
  TRACK 14 AUDIO
    TITLE "0:"
    INDEX 01 00:20:24
  TRACK 15 AUDIO
    TITLE "4:cjc004_2415"
    INDEX 01 00:20:49
  TRACK 16 AUDIO
    TITLE "0:"
    INDEX 01 00:21:60
  TRACK 17 AUDIO
    TITLE "5:cjc004_2416"
    INDEX 01 00:22:09
  TRACK 18 AUDIO
    TITLE "0:"
    INDEX 01 00:25:46
  TRACK 19 AUDIO
    TITLE "3:cjc004_2417"
    INDEX 01 00:26:22
  TRACK 20 AUDIO
    TITLE "0:"
    INDEX 01 00:27:51
  TRACK 21 AUDIO
    TITLE "4:cjc004_2418"
    INDEX 01 00:28:00
  TRACK 22 AUDIO
    TITLE "0:"
    INDEX 01 00:29:52
  TRACK 23 AUDIO
    TITLE "5:cjc004_2419"
    INDEX 01 00:30:03
  TRACK 24 AUDIO
    TITLE "0:"
    INDEX 01 00:35:33
  TRACK 25 AUDIO
    TITLE "3:cjc004_2420"
    INDEX 01 00:36:05
  TRACK 26 AUDIO
    TITLE "0:"
    INDEX 01 00:37:18
  TRACK 27 AUDIO
    TITLE "4:cjc004_2421"
    INDEX 01 00:37:50
  TRACK 28 AUDIO
    TITLE "0:"
    INDEX 01 00:38:69
  TRACK 29 AUDIO
    TITLE "5:cjc004_2422"
    INDEX 01 00:39:17
  TRACK 30 AUDIO
    TITLE "0:"
    INDEX 01 00:44:30
  TRACK 31 AUDIO
    TITLE "3:cjc004_2423"
    INDEX 01 00:45:10
  TRACK 32 AUDIO
    TITLE "0:"
    INDEX 01 00:46:51
  TRACK 33 AUDIO
    TITLE "4:cjc004_2424"
    INDEX 01 00:47:07
  TRACK 34 AUDIO
    TITLE "0:"
    INDEX 01 00:48:24
  TRACK 35 AUDIO
    TITLE "5:cjc004_2425"
    INDEX 01 00:48:49
  TRACK 36 AUDIO
    TITLE "0:"
    INDEX 01 00:52:63
  TRACK 37 AUDIO
    TITLE "3:cjc004_2426"
    INDEX 01 00:53:33
  TRACK 38 AUDIO
    TITLE "0:"
    INDEX 01 00:54:42
  TRACK 39 AUDIO
    TITLE "4:cjc004_2427"
    INDEX 01 00:54:68
  TRACK 40 AUDIO
    TITLE "0:"
    INDEX 01 00:55:73
  TRACK 41 AUDIO
    TITLE "5:cjc004_2428"
    INDEX 01 00:56:24
  TRACK 42 AUDIO
    TITLE "0:"
    INDEX 01 01:02:30
  TRACK 43 AUDIO
    TITLE "3:cjc004_2429"
    INDEX 01 01:03:06
  TRACK 44 AUDIO
    TITLE "0:"
    INDEX 01 01:04:21
  TRACK 45 AUDIO
    TITLE "4:cjc004_2430"
    INDEX 01 01:04:48
  TRACK 46 AUDIO
    TITLE "0:"
    INDEX 01 01:05:64
  TRACK 47 AUDIO
    TITLE "5:cjc004_2431"
    INDEX 01 01:06:14
  TRACK 48 AUDIO
    TITLE "0:"
    INDEX 01 01:09:42
  TRACK 49 AUDIO
    TITLE "3:cjc004_2432"
    INDEX 01 01:10:18
  TRACK 50 AUDIO
    TITLE "0:"
    INDEX 01 01:11:27
  TRACK 51 AUDIO
    TITLE "4:cjc004_2433"
    INDEX 01 01:11:54
  TRACK 52 AUDIO
    TITLE "0:"
    INDEX 01 01:12:66
  TRACK 53 AUDIO
    TITLE "5:cjc004_2434"
    INDEX 01 01:13:18
  TRACK 54 AUDIO
    TITLE "0:"
    INDEX 01 01:18:00
  TRACK 55 AUDIO
    TITLE "3:cjc004_2435"
    INDEX 01 01:18:49
  TRACK 56 AUDIO
    TITLE "0:"
    INDEX 01 01:19:66
  TRACK 57 AUDIO
    TITLE "4:cjc004_2436"
    INDEX 01 01:20:16
  TRACK 58 AUDIO
    TITLE "0:"
    INDEX 01 01:21:31
  TRACK 59 AUDIO
    TITLE "5:cjc004_2437"
    INDEX 01 01:21:57
  TRACK 60 AUDIO
    TITLE "0:"
    INDEX 01 01:26:01
